<mxfile host="Electron" modified="2024-11-20T23:30:36.290Z" agent="Mozilla/5.0 (Windows NT 10.0; Win64; x64) AppleWebKit/537.36 (KHTML, like Gecko) draw.io/24.2.5 Chrome/120.0.6099.109 Electron/28.1.0 Safari/537.36" etag="fGrSG_AdRlVS_mg65uiz" version="24.2.5" type="device" pages="3">
  <diagram name="Алгоритм анализа на уязвимости" id="Ri7dpsD-ceYD9cpbEQUS">
    <mxGraphModel dx="1434" dy="1284" grid="0" gridSize="10" guides="1" tooltips="1" connect="1" arrows="1" fold="1" page="0" pageScale="1" pageWidth="2000" pageHeight="1700" math="0" shadow="0">
      <root>
        <mxCell id="0" />
        <mxCell id="1" parent="0" />
        <mxCell id="CBOB4FIySFEtOHS1N5hC-3" style="edgeStyle=orthogonalEdgeStyle;rounded=0;orthogonalLoop=1;jettySize=auto;html=1;entryX=0.5;entryY=0;entryDx=0;entryDy=0;" edge="1" parent="1" source="CBOB4FIySFEtOHS1N5hC-1" target="CBOB4FIySFEtOHS1N5hC-2">
          <mxGeometry relative="1" as="geometry" />
        </mxCell>
        <mxCell id="CBOB4FIySFEtOHS1N5hC-1" value="Начало" style="ellipse;whiteSpace=wrap;html=1;" vertex="1" parent="1">
          <mxGeometry x="248" y="-136" width="173" height="79" as="geometry" />
        </mxCell>
        <mxCell id="CBOB4FIySFEtOHS1N5hC-5" style="edgeStyle=orthogonalEdgeStyle;rounded=0;orthogonalLoop=1;jettySize=auto;html=1;entryX=0.5;entryY=0;entryDx=0;entryDy=0;" edge="1" parent="1" source="CBOB4FIySFEtOHS1N5hC-2" target="CBOB4FIySFEtOHS1N5hC-4">
          <mxGeometry relative="1" as="geometry" />
        </mxCell>
        <mxCell id="CBOB4FIySFEtOHS1N5hC-2" value="Сбор информации о проекте(документация, исходный код, конфигурационные файлы, зависимости)" style="rounded=0;whiteSpace=wrap;html=1;" vertex="1" parent="1">
          <mxGeometry x="248" width="173" height="79" as="geometry" />
        </mxCell>
        <mxCell id="CBOB4FIySFEtOHS1N5hC-7" style="edgeStyle=orthogonalEdgeStyle;rounded=0;orthogonalLoop=1;jettySize=auto;html=1;entryX=0.5;entryY=0;entryDx=0;entryDy=0;" edge="1" parent="1" source="CBOB4FIySFEtOHS1N5hC-4" target="CBOB4FIySFEtOHS1N5hC-6">
          <mxGeometry relative="1" as="geometry" />
        </mxCell>
        <mxCell id="CBOB4FIySFEtOHS1N5hC-4" value="Определение целей анализа (выявление уязвимостей, проверка соответствия стандартам безопасности)" style="rounded=0;whiteSpace=wrap;html=1;" vertex="1" parent="1">
          <mxGeometry x="248" y="135" width="173" height="79" as="geometry" />
        </mxCell>
        <mxCell id="CBOB4FIySFEtOHS1N5hC-20" style="edgeStyle=orthogonalEdgeStyle;rounded=0;orthogonalLoop=1;jettySize=auto;html=1;entryX=0.5;entryY=0;entryDx=0;entryDy=0;" edge="1" parent="1" source="CBOB4FIySFEtOHS1N5hC-6" target="CBOB4FIySFEtOHS1N5hC-19">
          <mxGeometry relative="1" as="geometry" />
        </mxCell>
        <mxCell id="CBOB4FIySFEtOHS1N5hC-6" value="Выбор инструментов для анализа (SAST, DAST, SCA)" style="rounded=0;whiteSpace=wrap;html=1;" vertex="1" parent="1">
          <mxGeometry x="248" y="270" width="173" height="79" as="geometry" />
        </mxCell>
        <mxCell id="CBOB4FIySFEtOHS1N5hC-22" style="edgeStyle=orthogonalEdgeStyle;rounded=0;orthogonalLoop=1;jettySize=auto;html=1;entryX=0.5;entryY=0;entryDx=0;entryDy=0;" edge="1" parent="1" source="CBOB4FIySFEtOHS1N5hC-19" target="CBOB4FIySFEtOHS1N5hC-21">
          <mxGeometry relative="1" as="geometry" />
        </mxCell>
        <mxCell id="CBOB4FIySFEtOHS1N5hC-19" value="Настройка инструментов (конфигурация правил и параметров)" style="rounded=0;whiteSpace=wrap;html=1;" vertex="1" parent="1">
          <mxGeometry x="248" y="405" width="173" height="79" as="geometry" />
        </mxCell>
        <mxCell id="CBOB4FIySFEtOHS1N5hC-24" style="edgeStyle=orthogonalEdgeStyle;rounded=0;orthogonalLoop=1;jettySize=auto;html=1;entryX=0.5;entryY=0;entryDx=0;entryDy=0;" edge="1" parent="1" source="CBOB4FIySFEtOHS1N5hC-21" target="CBOB4FIySFEtOHS1N5hC-23">
          <mxGeometry relative="1" as="geometry" />
        </mxCell>
        <mxCell id="CBOB4FIySFEtOHS1N5hC-21" value="Статический анализ кода (SAST)(SonarQube)" style="rounded=0;whiteSpace=wrap;html=1;" vertex="1" parent="1">
          <mxGeometry x="248" y="540" width="173" height="79" as="geometry" />
        </mxCell>
        <mxCell id="CBOB4FIySFEtOHS1N5hC-26" style="edgeStyle=orthogonalEdgeStyle;rounded=0;orthogonalLoop=1;jettySize=auto;html=1;entryX=0.5;entryY=0;entryDx=0;entryDy=0;" edge="1" parent="1" source="CBOB4FIySFEtOHS1N5hC-23">
          <mxGeometry relative="1" as="geometry">
            <mxPoint x="334.5" y="810" as="targetPoint" />
          </mxGeometry>
        </mxCell>
        <mxCell id="CBOB4FIySFEtOHS1N5hC-23" value="Анализ результатов SAST (выявление уязвимостей)" style="rounded=0;whiteSpace=wrap;html=1;" vertex="1" parent="1">
          <mxGeometry x="248" y="675" width="173" height="79" as="geometry" />
        </mxCell>
        <mxCell id="CBOB4FIySFEtOHS1N5hC-33" style="edgeStyle=orthogonalEdgeStyle;rounded=0;orthogonalLoop=1;jettySize=auto;html=1;entryX=0.5;entryY=0;entryDx=0;entryDy=0;" edge="1" parent="1" source="CBOB4FIySFEtOHS1N5hC-27" target="CBOB4FIySFEtOHS1N5hC-31">
          <mxGeometry relative="1" as="geometry" />
        </mxCell>
        <mxCell id="CBOB4FIySFEtOHS1N5hC-34" style="edgeStyle=orthogonalEdgeStyle;rounded=0;orthogonalLoop=1;jettySize=auto;html=1;entryX=0.5;entryY=0;entryDx=0;entryDy=0;" edge="1" parent="1" source="CBOB4FIySFEtOHS1N5hC-27" target="CBOB4FIySFEtOHS1N5hC-29">
          <mxGeometry relative="1" as="geometry" />
        </mxCell>
        <mxCell id="CBOB4FIySFEtOHS1N5hC-27" value="Уязвимости найдены?" style="rhombus;whiteSpace=wrap;html=1;" vertex="1" parent="1">
          <mxGeometry x="248" y="810" width="173" height="79" as="geometry" />
        </mxCell>
        <mxCell id="CBOB4FIySFEtOHS1N5hC-35" style="edgeStyle=orthogonalEdgeStyle;rounded=0;orthogonalLoop=1;jettySize=auto;html=1;entryX=1;entryY=0.5;entryDx=0;entryDy=0;" edge="1" parent="1" source="CBOB4FIySFEtOHS1N5hC-29" target="CBOB4FIySFEtOHS1N5hC-31">
          <mxGeometry relative="1" as="geometry">
            <Array as="points">
              <mxPoint x="563" y="985" />
              <mxPoint x="449" y="985" />
            </Array>
          </mxGeometry>
        </mxCell>
        <mxCell id="CBOB4FIySFEtOHS1N5hC-29" value="Документирование уязвимостей (создание отчета)" style="rounded=0;whiteSpace=wrap;html=1;" vertex="1" parent="1">
          <mxGeometry x="476" y="875" width="173" height="79" as="geometry" />
        </mxCell>
        <mxCell id="CBOB4FIySFEtOHS1N5hC-40" style="edgeStyle=orthogonalEdgeStyle;rounded=0;orthogonalLoop=1;jettySize=auto;html=1;entryX=0.5;entryY=0;entryDx=0;entryDy=0;" edge="1" parent="1" source="CBOB4FIySFEtOHS1N5hC-31" target="CBOB4FIySFEtOHS1N5hC-39">
          <mxGeometry relative="1" as="geometry" />
        </mxCell>
        <mxCell id="CBOB4FIySFEtOHS1N5hC-31" value="Динамический анализ кода (DAST)(OWASP ZAP, Burp Suite)" style="rounded=0;whiteSpace=wrap;html=1;" vertex="1" parent="1">
          <mxGeometry x="248" y="945" width="173" height="79" as="geometry" />
        </mxCell>
        <mxCell id="CBOB4FIySFEtOHS1N5hC-36" value="Да" style="text;html=1;align=center;verticalAlign=middle;whiteSpace=wrap;rounded=0;" vertex="1" parent="1">
          <mxGeometry x="419" y="826" width="60" height="30" as="geometry" />
        </mxCell>
        <mxCell id="CBOB4FIySFEtOHS1N5hC-37" value="Нет" style="text;html=1;align=center;verticalAlign=middle;whiteSpace=wrap;rounded=0;" vertex="1" parent="1">
          <mxGeometry x="334" y="896" width="60" height="30" as="geometry" />
        </mxCell>
        <mxCell id="CBOB4FIySFEtOHS1N5hC-39" value="Анализ результатов DAST (выявление уязвимостей)" style="rounded=0;whiteSpace=wrap;html=1;" vertex="1" parent="1">
          <mxGeometry x="248" y="1100" width="173" height="79" as="geometry" />
        </mxCell>
        <mxCell id="CBOB4FIySFEtOHS1N5hC-53" style="edgeStyle=orthogonalEdgeStyle;rounded=0;orthogonalLoop=1;jettySize=auto;html=1;entryX=0.5;entryY=0;entryDx=0;entryDy=0;" edge="1" parent="1">
          <mxGeometry relative="1" as="geometry">
            <mxPoint x="335" y="1179" as="sourcePoint" />
            <mxPoint x="334.5" y="1235" as="targetPoint" />
          </mxGeometry>
        </mxCell>
        <mxCell id="CBOB4FIySFEtOHS1N5hC-55" style="edgeStyle=orthogonalEdgeStyle;rounded=0;orthogonalLoop=1;jettySize=auto;html=1;entryX=0.5;entryY=0;entryDx=0;entryDy=0;" edge="1" parent="1" source="CBOB4FIySFEtOHS1N5hC-56" target="CBOB4FIySFEtOHS1N5hC-58">
          <mxGeometry relative="1" as="geometry" />
        </mxCell>
        <mxCell id="CBOB4FIySFEtOHS1N5hC-62" style="edgeStyle=orthogonalEdgeStyle;rounded=0;orthogonalLoop=1;jettySize=auto;html=1;entryX=0.5;entryY=0;entryDx=0;entryDy=0;" edge="1" parent="1" source="CBOB4FIySFEtOHS1N5hC-56" target="CBOB4FIySFEtOHS1N5hC-61">
          <mxGeometry relative="1" as="geometry" />
        </mxCell>
        <mxCell id="CBOB4FIySFEtOHS1N5hC-56" value="Уязвимости найдены?" style="rhombus;whiteSpace=wrap;html=1;" vertex="1" parent="1">
          <mxGeometry x="248" y="1235" width="173" height="79" as="geometry" />
        </mxCell>
        <mxCell id="CBOB4FIySFEtOHS1N5hC-57" style="edgeStyle=orthogonalEdgeStyle;rounded=0;orthogonalLoop=1;jettySize=auto;html=1;entryX=1;entryY=0.5;entryDx=0;entryDy=0;" edge="1" parent="1" source="CBOB4FIySFEtOHS1N5hC-58">
          <mxGeometry relative="1" as="geometry">
            <mxPoint x="421" y="1410" as="targetPoint" />
            <Array as="points">
              <mxPoint x="563" y="1410" />
              <mxPoint x="449" y="1410" />
            </Array>
          </mxGeometry>
        </mxCell>
        <mxCell id="CBOB4FIySFEtOHS1N5hC-58" value="Документирование уязвимостей (создание отчета)" style="rounded=0;whiteSpace=wrap;html=1;" vertex="1" parent="1">
          <mxGeometry x="476" y="1300" width="173" height="79" as="geometry" />
        </mxCell>
        <mxCell id="CBOB4FIySFEtOHS1N5hC-59" value="Да" style="text;html=1;align=center;verticalAlign=middle;whiteSpace=wrap;rounded=0;" vertex="1" parent="1">
          <mxGeometry x="419" y="1251" width="60" height="30" as="geometry" />
        </mxCell>
        <mxCell id="CBOB4FIySFEtOHS1N5hC-60" value="Нет" style="text;html=1;align=center;verticalAlign=middle;whiteSpace=wrap;rounded=0;" vertex="1" parent="1">
          <mxGeometry x="336" y="1327" width="60" height="30" as="geometry" />
        </mxCell>
        <mxCell id="CBOB4FIySFEtOHS1N5hC-66" style="edgeStyle=orthogonalEdgeStyle;rounded=0;orthogonalLoop=1;jettySize=auto;html=1;entryX=0.5;entryY=0;entryDx=0;entryDy=0;" edge="1" parent="1" source="CBOB4FIySFEtOHS1N5hC-61" target="CBOB4FIySFEtOHS1N5hC-63">
          <mxGeometry relative="1" as="geometry" />
        </mxCell>
        <mxCell id="CBOB4FIySFEtOHS1N5hC-61" value="Анализ зависимостей (SCA) (OWASP Dependency-Check, Snyk)" style="rounded=0;whiteSpace=wrap;html=1;" vertex="1" parent="1">
          <mxGeometry x="248" y="1370" width="173" height="77" as="geometry" />
        </mxCell>
        <mxCell id="CBOB4FIySFEtOHS1N5hC-63" value="Анализ результатов SCA (выявление уязвимостей в зависимостях)|" style="rounded=0;whiteSpace=wrap;html=1;" vertex="1" parent="1">
          <mxGeometry x="248" y="1525" width="173" height="77" as="geometry" />
        </mxCell>
        <mxCell id="CBOB4FIySFEtOHS1N5hC-67" style="edgeStyle=orthogonalEdgeStyle;rounded=0;orthogonalLoop=1;jettySize=auto;html=1;entryX=0.5;entryY=0;entryDx=0;entryDy=0;" edge="1" parent="1">
          <mxGeometry relative="1" as="geometry">
            <mxPoint x="335" y="1602" as="sourcePoint" />
            <mxPoint x="334.5" y="1658" as="targetPoint" />
          </mxGeometry>
        </mxCell>
        <mxCell id="CBOB4FIySFEtOHS1N5hC-69" style="edgeStyle=orthogonalEdgeStyle;rounded=0;orthogonalLoop=1;jettySize=auto;html=1;entryX=0.5;entryY=0;entryDx=0;entryDy=0;" edge="1" parent="1" source="CBOB4FIySFEtOHS1N5hC-70" target="CBOB4FIySFEtOHS1N5hC-72">
          <mxGeometry relative="1" as="geometry" />
        </mxCell>
        <mxCell id="CBOB4FIySFEtOHS1N5hC-76" style="edgeStyle=orthogonalEdgeStyle;rounded=0;orthogonalLoop=1;jettySize=auto;html=1;entryX=0.5;entryY=0;entryDx=0;entryDy=0;" edge="1" parent="1" source="CBOB4FIySFEtOHS1N5hC-70" target="CBOB4FIySFEtOHS1N5hC-75">
          <mxGeometry relative="1" as="geometry" />
        </mxCell>
        <mxCell id="CBOB4FIySFEtOHS1N5hC-70" value="Уязвимости найдены?" style="rhombus;whiteSpace=wrap;html=1;" vertex="1" parent="1">
          <mxGeometry x="248" y="1658" width="173" height="79" as="geometry" />
        </mxCell>
        <mxCell id="CBOB4FIySFEtOHS1N5hC-71" style="edgeStyle=orthogonalEdgeStyle;rounded=0;orthogonalLoop=1;jettySize=auto;html=1;entryX=1;entryY=0.5;entryDx=0;entryDy=0;" edge="1" parent="1" source="CBOB4FIySFEtOHS1N5hC-72">
          <mxGeometry relative="1" as="geometry">
            <mxPoint x="421" y="1833" as="targetPoint" />
            <Array as="points">
              <mxPoint x="563" y="1833" />
              <mxPoint x="449" y="1833" />
            </Array>
          </mxGeometry>
        </mxCell>
        <mxCell id="CBOB4FIySFEtOHS1N5hC-72" value="Документирование уязвимостей (создание отчета)" style="rounded=0;whiteSpace=wrap;html=1;" vertex="1" parent="1">
          <mxGeometry x="476" y="1723" width="173" height="79" as="geometry" />
        </mxCell>
        <mxCell id="CBOB4FIySFEtOHS1N5hC-73" value="Да" style="text;html=1;align=center;verticalAlign=middle;whiteSpace=wrap;rounded=0;" vertex="1" parent="1">
          <mxGeometry x="419" y="1674" width="60" height="30" as="geometry" />
        </mxCell>
        <mxCell id="CBOB4FIySFEtOHS1N5hC-74" value="Нет" style="text;html=1;align=center;verticalAlign=middle;whiteSpace=wrap;rounded=0;" vertex="1" parent="1">
          <mxGeometry x="334" y="1747.5" width="60" height="30" as="geometry" />
        </mxCell>
        <mxCell id="CBOB4FIySFEtOHS1N5hC-78" style="edgeStyle=orthogonalEdgeStyle;rounded=0;orthogonalLoop=1;jettySize=auto;html=1;entryX=0.5;entryY=0;entryDx=0;entryDy=0;" edge="1" parent="1" source="CBOB4FIySFEtOHS1N5hC-75" target="CBOB4FIySFEtOHS1N5hC-77">
          <mxGeometry relative="1" as="geometry" />
        </mxCell>
        <mxCell id="CBOB4FIySFEtOHS1N5hC-75" value="Ручной анализ кода (обзор кода, проверка логики, анализ конфигураций)" style="rounded=0;whiteSpace=wrap;html=1;" vertex="1" parent="1">
          <mxGeometry x="248" y="1795" width="173" height="77" as="geometry" />
        </mxCell>
        <mxCell id="CBOB4FIySFEtOHS1N5hC-80" style="edgeStyle=orthogonalEdgeStyle;rounded=0;orthogonalLoop=1;jettySize=auto;html=1;entryX=0.5;entryY=0;entryDx=0;entryDy=0;" edge="1" parent="1" source="CBOB4FIySFEtOHS1N5hC-77" target="CBOB4FIySFEtOHS1N5hC-79">
          <mxGeometry relative="1" as="geometry" />
        </mxCell>
        <mxCell id="CBOB4FIySFEtOHS1N5hC-77" value="Документирование уязвимостей (создание отчета)" style="rounded=0;whiteSpace=wrap;html=1;" vertex="1" parent="1">
          <mxGeometry x="248" y="1950" width="173" height="79" as="geometry" />
        </mxCell>
        <mxCell id="CBOB4FIySFEtOHS1N5hC-79" value="Конец" style="ellipse;whiteSpace=wrap;html=1;" vertex="1" parent="1">
          <mxGeometry x="248" y="2105" width="173" height="79" as="geometry" />
        </mxCell>
      </root>
    </mxGraphModel>
  </diagram>
  <diagram id="-sIyVwahZ0iq55fZLN-C" name="Функциональная диаграмма">
    <mxGraphModel dx="819" dy="505" grid="0" gridSize="10" guides="1" tooltips="1" connect="1" arrows="1" fold="1" page="1" pageScale="1" pageWidth="2000" pageHeight="1700" math="0" shadow="0">
      <root>
        <mxCell id="0" />
        <mxCell id="1" parent="0" />
        <mxCell id="jezyTj6LDCrgHvf47zTM-1" value="&lt;font style=&quot;font-size: 16px;&quot;&gt;Анализ кода на уязвимости&lt;/font&gt;" style="rounded=0;whiteSpace=wrap;html=1;" vertex="1" parent="1">
          <mxGeometry x="915" y="535" width="217" height="133" as="geometry" />
        </mxCell>
        <mxCell id="jezyTj6LDCrgHvf47zTM-2" value="" style="endArrow=classic;html=1;rounded=0;entryX=0;entryY=0.114;entryDx=0;entryDy=0;entryPerimeter=0;" edge="1" parent="1" target="jezyTj6LDCrgHvf47zTM-1">
          <mxGeometry width="50" height="50" relative="1" as="geometry">
            <mxPoint x="755" y="550" as="sourcePoint" />
            <mxPoint x="701" y="555" as="targetPoint" />
          </mxGeometry>
        </mxCell>
        <mxCell id="jezyTj6LDCrgHvf47zTM-3" value="&lt;font style=&quot;font-size: 14px;&quot;&gt;Исходный код&lt;/font&gt;" style="text;html=1;align=center;verticalAlign=middle;whiteSpace=wrap;rounded=0;" vertex="1" parent="1">
          <mxGeometry x="776" y="518" width="105" height="30" as="geometry" />
        </mxCell>
        <mxCell id="jezyTj6LDCrgHvf47zTM-4" value="" style="endArrow=classic;html=1;rounded=0;entryX=-0.007;entryY=0.115;entryDx=0;entryDy=0;entryPerimeter=0;" edge="1" parent="1">
          <mxGeometry width="50" height="50" relative="1" as="geometry">
            <mxPoint x="756" y="585" as="sourcePoint" />
            <mxPoint x="915" y="585" as="targetPoint" />
          </mxGeometry>
        </mxCell>
        <mxCell id="jezyTj6LDCrgHvf47zTM-5" value="&lt;font style=&quot;font-size: 14px;&quot;&gt;Документация&lt;/font&gt;" style="text;html=1;align=center;verticalAlign=middle;whiteSpace=wrap;rounded=0;" vertex="1" parent="1">
          <mxGeometry x="777" y="553" width="105" height="30" as="geometry" />
        </mxCell>
        <mxCell id="jezyTj6LDCrgHvf47zTM-6" value="" style="endArrow=classic;html=1;rounded=0;entryX=-0.007;entryY=0.115;entryDx=0;entryDy=0;entryPerimeter=0;" edge="1" parent="1">
          <mxGeometry width="50" height="50" relative="1" as="geometry">
            <mxPoint x="757" y="624.43" as="sourcePoint" />
            <mxPoint x="916" y="624.43" as="targetPoint" />
          </mxGeometry>
        </mxCell>
        <mxCell id="jezyTj6LDCrgHvf47zTM-7" value="&lt;font style=&quot;font-size: 14px;&quot;&gt;Конфигурационные файлы&lt;/font&gt;" style="text;html=1;align=center;verticalAlign=middle;whiteSpace=wrap;rounded=0;" vertex="1" parent="1">
          <mxGeometry x="740" y="592.43" width="177" height="30" as="geometry" />
        </mxCell>
        <mxCell id="jezyTj6LDCrgHvf47zTM-8" value="" style="endArrow=classic;html=1;rounded=0;entryX=-0.007;entryY=0.115;entryDx=0;entryDy=0;entryPerimeter=0;" edge="1" parent="1">
          <mxGeometry width="50" height="50" relative="1" as="geometry">
            <mxPoint x="756" y="657" as="sourcePoint" />
            <mxPoint x="915" y="657" as="targetPoint" />
          </mxGeometry>
        </mxCell>
        <mxCell id="jezyTj6LDCrgHvf47zTM-9" value="&lt;font style=&quot;font-size: 14px;&quot;&gt;Исходный код&lt;/font&gt;" style="text;html=1;align=center;verticalAlign=middle;whiteSpace=wrap;rounded=0;" vertex="1" parent="1">
          <mxGeometry x="777" y="625" width="105" height="30" as="geometry" />
        </mxCell>
        <mxCell id="jezyTj6LDCrgHvf47zTM-10" value="" style="endArrow=classic;html=1;rounded=0;exitX=1;exitY=0.323;exitDx=0;exitDy=0;exitPerimeter=0;" edge="1" parent="1" source="jezyTj6LDCrgHvf47zTM-1">
          <mxGeometry width="50" height="50" relative="1" as="geometry">
            <mxPoint x="1126" y="578" as="sourcePoint" />
            <mxPoint x="1303" y="578" as="targetPoint" />
          </mxGeometry>
        </mxCell>
        <mxCell id="jezyTj6LDCrgHvf47zTM-11" value="&lt;font style=&quot;font-size: 14px;&quot;&gt;Отчет об уязвимостях&lt;/font&gt;" style="text;html=1;align=center;verticalAlign=middle;whiteSpace=wrap;rounded=0;" vertex="1" parent="1">
          <mxGeometry x="1126" y="546" width="167" height="30" as="geometry" />
        </mxCell>
        <mxCell id="jezyTj6LDCrgHvf47zTM-12" value="" style="endArrow=classic;html=1;rounded=0;exitX=0.999;exitY=0.601;exitDx=0;exitDy=0;exitPerimeter=0;" edge="1" parent="1">
          <mxGeometry width="50" height="50" relative="1" as="geometry">
            <mxPoint x="1131.783" y="624.4329999999998" as="sourcePoint" />
            <mxPoint x="1302" y="624.5" as="targetPoint" />
          </mxGeometry>
        </mxCell>
        <mxCell id="jezyTj6LDCrgHvf47zTM-13" value="&lt;font style=&quot;font-size: 14px;&quot;&gt;Рекомендации по исправлению&lt;/font&gt;" style="text;html=1;align=center;verticalAlign=middle;whiteSpace=wrap;rounded=0;" vertex="1" parent="1">
          <mxGeometry x="1128" y="592.5" width="164" height="30" as="geometry" />
        </mxCell>
        <mxCell id="jezyTj6LDCrgHvf47zTM-14" value="" style="endArrow=classic;html=1;rounded=0;entryX=0.226;entryY=0.995;entryDx=0;entryDy=0;entryPerimeter=0;" edge="1" parent="1">
          <mxGeometry width="50" height="50" relative="1" as="geometry">
            <mxPoint x="937" y="769.67" as="sourcePoint" />
            <mxPoint x="937.0419999999999" y="668.0049999999998" as="targetPoint" />
          </mxGeometry>
        </mxCell>
        <mxCell id="jezyTj6LDCrgHvf47zTM-15" value="" style="endArrow=classic;html=1;rounded=0;entryX=0.226;entryY=0.995;entryDx=0;entryDy=0;entryPerimeter=0;" edge="1" parent="1">
          <mxGeometry width="50" height="50" relative="1" as="geometry">
            <mxPoint x="990" y="770" as="sourcePoint" />
            <mxPoint x="990" y="668" as="targetPoint" />
          </mxGeometry>
        </mxCell>
        <mxCell id="jezyTj6LDCrgHvf47zTM-16" value="" style="endArrow=classic;html=1;rounded=0;entryX=0.226;entryY=0.995;entryDx=0;entryDy=0;entryPerimeter=0;" edge="1" parent="1">
          <mxGeometry width="50" height="50" relative="1" as="geometry">
            <mxPoint x="1044" y="770" as="sourcePoint" />
            <mxPoint x="1044" y="668" as="targetPoint" />
          </mxGeometry>
        </mxCell>
        <mxCell id="jezyTj6LDCrgHvf47zTM-17" value="" style="endArrow=classic;html=1;rounded=0;entryX=0.226;entryY=0.995;entryDx=0;entryDy=0;entryPerimeter=0;" edge="1" parent="1">
          <mxGeometry width="50" height="50" relative="1" as="geometry">
            <mxPoint x="1103" y="770" as="sourcePoint" />
            <mxPoint x="1103" y="668" as="targetPoint" />
          </mxGeometry>
        </mxCell>
        <mxCell id="jezyTj6LDCrgHvf47zTM-20" value="" style="endArrow=classic;html=1;rounded=0;" edge="1" parent="1">
          <mxGeometry width="50" height="50" relative="1" as="geometry">
            <mxPoint x="970.3" y="436" as="sourcePoint" />
            <mxPoint x="970.0009063444106" y="535" as="targetPoint" />
          </mxGeometry>
        </mxCell>
        <mxCell id="jezyTj6LDCrgHvf47zTM-21" value="" style="endArrow=classic;html=1;rounded=0;" edge="1" parent="1">
          <mxGeometry width="50" height="50" relative="1" as="geometry">
            <mxPoint x="1058.3" y="436" as="sourcePoint" />
            <mxPoint x="1058.0009063444106" y="535" as="targetPoint" />
          </mxGeometry>
        </mxCell>
        <mxCell id="jezyTj6LDCrgHvf47zTM-22" value="&lt;font style=&quot;font-size: 14px;&quot;&gt;Цели анализа&lt;/font&gt;" style="text;html=1;align=center;verticalAlign=middle;whiteSpace=wrap;rounded=0;" vertex="1" parent="1">
          <mxGeometry x="858" y="469" width="105" height="30" as="geometry" />
        </mxCell>
        <mxCell id="jezyTj6LDCrgHvf47zTM-23" value="&lt;font style=&quot;font-size: 14px;&quot;&gt;Правила и параметры анализа&lt;/font&gt;" style="text;html=1;align=center;verticalAlign=middle;whiteSpace=wrap;rounded=0;" vertex="1" parent="1">
          <mxGeometry x="1073" y="472" width="105" height="30" as="geometry" />
        </mxCell>
        <mxCell id="jezyTj6LDCrgHvf47zTM-24" value="&lt;font style=&quot;font-size: 14px;&quot;&gt;Инструменты SAST (SonarQube)&lt;/font&gt;" style="text;html=1;align=center;verticalAlign=middle;whiteSpace=wrap;rounded=0;" vertex="1" parent="1">
          <mxGeometry x="1105" y="719" width="105" height="30" as="geometry" />
        </mxCell>
        <mxCell id="jezyTj6LDCrgHvf47zTM-25" value="&lt;font style=&quot;font-size: 14px;&quot;&gt;Инструменты DAST (OWASP ZAP, Burp Suite)&lt;/font&gt;" style="text;html=1;align=center;verticalAlign=middle;whiteSpace=wrap;rounded=0;" vertex="1" parent="1">
          <mxGeometry x="1038" y="770" width="59" height="94" as="geometry" />
        </mxCell>
        <mxCell id="jezyTj6LDCrgHvf47zTM-26" value="&lt;span style=&quot;font-size: 14px;&quot;&gt;Ручной анализ&lt;/span&gt;" style="text;html=1;align=center;verticalAlign=middle;whiteSpace=wrap;rounded=0;" vertex="1" parent="1">
          <mxGeometry x="956" y="752" width="58" height="86" as="geometry" />
        </mxCell>
        <mxCell id="jezyTj6LDCrgHvf47zTM-27" value="&lt;font style=&quot;font-size: 14px;&quot;&gt;Инструменты SCA (OWASP Dependency-Check)&lt;/font&gt;" style="text;html=1;align=center;verticalAlign=middle;whiteSpace=wrap;rounded=0;" vertex="1" parent="1">
          <mxGeometry x="827" y="703" width="105" height="30" as="geometry" />
        </mxCell>
      </root>
    </mxGraphModel>
  </diagram>
  <diagram id="3PlGTKHXYEgQjPfPhl5I" name="Декомпозиция">
    <mxGraphModel dx="1434" dy="884" grid="0" gridSize="10" guides="0" tooltips="1" connect="1" arrows="1" fold="1" page="1" pageScale="1" pageWidth="2000" pageHeight="1700" math="0" shadow="0">
      <root>
        <mxCell id="0" />
        <mxCell id="1" parent="0" />
        <mxCell id="FxLP1MhPipuWpgZX1rUJ-1" value="&lt;font style=&quot;font-size: 16px;&quot;&gt;Подготовка к анализу&lt;/font&gt;" style="rounded=0;whiteSpace=wrap;html=1;" vertex="1" parent="1">
          <mxGeometry x="288" y="219" width="217" height="133" as="geometry" />
        </mxCell>
        <mxCell id="__zgodZX4Aq3NMXaG7Lk-6" style="edgeStyle=orthogonalEdgeStyle;rounded=0;orthogonalLoop=1;jettySize=auto;html=1;entryX=0;entryY=0.5;entryDx=0;entryDy=0;" edge="1" parent="1" source="FxLP1MhPipuWpgZX1rUJ-2" target="FxLP1MhPipuWpgZX1rUJ-3">
          <mxGeometry relative="1" as="geometry">
            <Array as="points">
              <mxPoint x="1084" y="573" />
              <mxPoint x="1084" y="828" />
            </Array>
          </mxGeometry>
        </mxCell>
        <mxCell id="FxLP1MhPipuWpgZX1rUJ-2" value="&lt;font style=&quot;font-size: 16px;&quot;&gt;Проведение анализа&lt;/font&gt;" style="rounded=0;whiteSpace=wrap;html=1;" vertex="1" parent="1">
          <mxGeometry x="742" y="506" width="217" height="133" as="geometry" />
        </mxCell>
        <mxCell id="__zgodZX4Aq3NMXaG7Lk-7" style="edgeStyle=orthogonalEdgeStyle;rounded=0;orthogonalLoop=1;jettySize=auto;html=1;" edge="1" parent="1">
          <mxGeometry relative="1" as="geometry">
            <mxPoint x="1536" y="787" as="targetPoint" />
            <mxPoint x="1360" y="787" as="sourcePoint" />
          </mxGeometry>
        </mxCell>
        <mxCell id="FxLP1MhPipuWpgZX1rUJ-3" value="&lt;font style=&quot;font-size: 16px;&quot;&gt;Документирование результатов&lt;/font&gt;" style="rounded=0;whiteSpace=wrap;html=1;" vertex="1" parent="1">
          <mxGeometry x="1143" y="761" width="217" height="133" as="geometry" />
        </mxCell>
        <mxCell id="u0-tptMUeYypXEJMYyZH-1" value="" style="endArrow=classic;html=1;rounded=0;entryX=0;entryY=0.114;entryDx=0;entryDy=0;entryPerimeter=0;" edge="1" parent="1">
          <mxGeometry width="50" height="50" relative="1" as="geometry">
            <mxPoint x="130" y="235" as="sourcePoint" />
            <mxPoint x="290" y="235" as="targetPoint" />
          </mxGeometry>
        </mxCell>
        <mxCell id="u0-tptMUeYypXEJMYyZH-2" value="&lt;font style=&quot;font-size: 14px;&quot;&gt;Исходный код&lt;/font&gt;" style="text;html=1;align=center;verticalAlign=middle;whiteSpace=wrap;rounded=0;" vertex="1" parent="1">
          <mxGeometry x="151" y="203" width="105" height="30" as="geometry" />
        </mxCell>
        <mxCell id="u0-tptMUeYypXEJMYyZH-3" value="" style="endArrow=classic;html=1;rounded=0;entryX=-0.007;entryY=0.115;entryDx=0;entryDy=0;entryPerimeter=0;" edge="1" parent="1">
          <mxGeometry width="50" height="50" relative="1" as="geometry">
            <mxPoint x="131" y="270" as="sourcePoint" />
            <mxPoint x="290" y="270" as="targetPoint" />
          </mxGeometry>
        </mxCell>
        <mxCell id="u0-tptMUeYypXEJMYyZH-4" value="&lt;font style=&quot;font-size: 14px;&quot;&gt;Документация&lt;/font&gt;" style="text;html=1;align=center;verticalAlign=middle;whiteSpace=wrap;rounded=0;" vertex="1" parent="1">
          <mxGeometry x="152" y="238" width="105" height="30" as="geometry" />
        </mxCell>
        <mxCell id="u0-tptMUeYypXEJMYyZH-5" value="" style="endArrow=classic;html=1;rounded=0;entryX=-0.007;entryY=0.115;entryDx=0;entryDy=0;entryPerimeter=0;" edge="1" parent="1">
          <mxGeometry width="50" height="50" relative="1" as="geometry">
            <mxPoint x="132" y="309.42999999999995" as="sourcePoint" />
            <mxPoint x="291" y="309.42999999999995" as="targetPoint" />
          </mxGeometry>
        </mxCell>
        <mxCell id="u0-tptMUeYypXEJMYyZH-6" value="&lt;font style=&quot;font-size: 14px;&quot;&gt;Конфигурационные файлы&lt;/font&gt;" style="text;html=1;align=center;verticalAlign=middle;whiteSpace=wrap;rounded=0;" vertex="1" parent="1">
          <mxGeometry x="115" y="277.42999999999995" width="177" height="30" as="geometry" />
        </mxCell>
        <mxCell id="u0-tptMUeYypXEJMYyZH-7" value="" style="endArrow=classic;html=1;rounded=0;entryX=-0.007;entryY=0.115;entryDx=0;entryDy=0;entryPerimeter=0;" edge="1" parent="1">
          <mxGeometry width="50" height="50" relative="1" as="geometry">
            <mxPoint x="131" y="342" as="sourcePoint" />
            <mxPoint x="290" y="342" as="targetPoint" />
          </mxGeometry>
        </mxCell>
        <mxCell id="u0-tptMUeYypXEJMYyZH-8" value="&lt;font style=&quot;font-size: 14px;&quot;&gt;Исходный код&lt;/font&gt;" style="text;html=1;align=center;verticalAlign=middle;whiteSpace=wrap;rounded=0;" vertex="1" parent="1">
          <mxGeometry x="152" y="310" width="105" height="30" as="geometry" />
        </mxCell>
        <mxCell id="Bp4y3WKvlG-RzDEeXT-m-5" value="" style="endArrow=classic;html=1;rounded=0;entryX=0.25;entryY=0;entryDx=0;entryDy=0;" edge="1" parent="1" target="FxLP1MhPipuWpgZX1rUJ-1">
          <mxGeometry width="50" height="50" relative="1" as="geometry">
            <mxPoint x="342" y="149" as="sourcePoint" />
            <mxPoint x="349.0009063444106" y="219" as="targetPoint" />
          </mxGeometry>
        </mxCell>
        <mxCell id="Bp4y3WKvlG-RzDEeXT-m-7" value="&lt;font style=&quot;font-size: 14px;&quot;&gt;Цели анализа&lt;/font&gt;" style="text;html=1;align=center;verticalAlign=middle;whiteSpace=wrap;rounded=0;" vertex="1" parent="1">
          <mxGeometry x="282" y="118" width="105" height="30" as="geometry" />
        </mxCell>
        <mxCell id="__zgodZX4Aq3NMXaG7Lk-20" style="edgeStyle=orthogonalEdgeStyle;rounded=0;orthogonalLoop=1;jettySize=auto;html=1;" edge="1" parent="1">
          <mxGeometry relative="1" as="geometry">
            <mxPoint x="832" y="160" as="sourcePoint" />
            <mxPoint x="832" y="508" as="targetPoint" />
            <Array as="points">
              <mxPoint x="832" y="506" />
            </Array>
          </mxGeometry>
        </mxCell>
        <mxCell id="__zgodZX4Aq3NMXaG7Lk-21" style="edgeStyle=orthogonalEdgeStyle;rounded=0;orthogonalLoop=1;jettySize=auto;html=1;entryX=0.5;entryY=0;entryDx=0;entryDy=0;" edge="1" parent="1" source="Bp4y3WKvlG-RzDEeXT-m-8" target="FxLP1MhPipuWpgZX1rUJ-1">
          <mxGeometry relative="1" as="geometry" />
        </mxCell>
        <mxCell id="__zgodZX4Aq3NMXaG7Lk-22" style="edgeStyle=orthogonalEdgeStyle;rounded=0;orthogonalLoop=1;jettySize=auto;html=1;entryX=0.5;entryY=0;entryDx=0;entryDy=0;" edge="1" parent="1" source="Bp4y3WKvlG-RzDEeXT-m-8" target="FxLP1MhPipuWpgZX1rUJ-3">
          <mxGeometry relative="1" as="geometry" />
        </mxCell>
        <mxCell id="Bp4y3WKvlG-RzDEeXT-m-8" value="&lt;font style=&quot;font-size: 14px;&quot;&gt;Правила и параметры анализа&lt;/font&gt;" style="text;html=1;align=center;verticalAlign=middle;whiteSpace=wrap;rounded=0;" vertex="1" parent="1">
          <mxGeometry x="779" y="123" width="105" height="30" as="geometry" />
        </mxCell>
        <mxCell id="__zgodZX4Aq3NMXaG7Lk-25" style="edgeStyle=orthogonalEdgeStyle;rounded=0;orthogonalLoop=1;jettySize=auto;html=1;" edge="1" parent="1" source="Bp4y3WKvlG-RzDEeXT-m-9">
          <mxGeometry relative="1" as="geometry">
            <mxPoint x="935" y="637" as="targetPoint" />
            <Array as="points">
              <mxPoint x="905" y="796" />
              <mxPoint x="935" y="796" />
              <mxPoint x="935" y="639" />
            </Array>
          </mxGeometry>
        </mxCell>
        <mxCell id="Bp4y3WKvlG-RzDEeXT-m-9" value="&lt;font style=&quot;font-size: 14px;&quot;&gt;Инструменты SAST (SonarQube)&lt;/font&gt;" style="text;html=1;align=center;verticalAlign=middle;whiteSpace=wrap;rounded=0;" vertex="1" parent="1">
          <mxGeometry x="816" y="952" width="169" height="30" as="geometry" />
        </mxCell>
        <mxCell id="__zgodZX4Aq3NMXaG7Lk-26" style="edgeStyle=orthogonalEdgeStyle;rounded=0;orthogonalLoop=1;jettySize=auto;html=1;" edge="1" parent="1" source="Bp4y3WKvlG-RzDEeXT-m-10">
          <mxGeometry relative="1" as="geometry">
            <mxPoint x="868" y="637" as="targetPoint" />
            <Array as="points">
              <mxPoint x="718" y="906" />
              <mxPoint x="868" y="906" />
            </Array>
          </mxGeometry>
        </mxCell>
        <mxCell id="Bp4y3WKvlG-RzDEeXT-m-10" value="&lt;font style=&quot;font-size: 14px;&quot;&gt;Инструменты DAST (OWASP ZAP, Burp Suite)&lt;/font&gt;" style="text;html=1;align=center;verticalAlign=middle;whiteSpace=wrap;rounded=0;" vertex="1" parent="1">
          <mxGeometry x="641" y="927" width="154" height="94" as="geometry" />
        </mxCell>
        <mxCell id="__zgodZX4Aq3NMXaG7Lk-27" style="edgeStyle=orthogonalEdgeStyle;rounded=0;orthogonalLoop=1;jettySize=auto;html=1;entryX=0.373;entryY=1;entryDx=0;entryDy=0;entryPerimeter=0;" edge="1" parent="1" source="Bp4y3WKvlG-RzDEeXT-m-11" target="FxLP1MhPipuWpgZX1rUJ-2">
          <mxGeometry relative="1" as="geometry">
            <Array as="points">
              <mxPoint x="546" y="851" />
              <mxPoint x="823" y="851" />
            </Array>
          </mxGeometry>
        </mxCell>
        <mxCell id="Bp4y3WKvlG-RzDEeXT-m-11" value="&lt;span style=&quot;font-size: 14px;&quot;&gt;Ручной анализ&lt;/span&gt;" style="text;html=1;align=center;verticalAlign=middle;whiteSpace=wrap;rounded=0;" vertex="1" parent="1">
          <mxGeometry x="493" y="943" width="106" height="61" as="geometry" />
        </mxCell>
        <mxCell id="Bp4y3WKvlG-RzDEeXT-m-12" value="&lt;font style=&quot;font-size: 14px;&quot;&gt;Инструменты SCA (OWASP Dependency-Check)&lt;/font&gt;" style="text;html=1;align=center;verticalAlign=middle;whiteSpace=wrap;rounded=0;" vertex="1" parent="1">
          <mxGeometry x="262" y="939" width="172" height="67" as="geometry" />
        </mxCell>
        <mxCell id="__zgodZX4Aq3NMXaG7Lk-1" value="" style="endArrow=classic;html=1;rounded=0;exitX=1;exitY=0.323;exitDx=0;exitDy=0;exitPerimeter=0;entryX=0;entryY=0.5;entryDx=0;entryDy=0;edgeStyle=orthogonalEdgeStyle;" edge="1" parent="1" target="FxLP1MhPipuWpgZX1rUJ-2">
          <mxGeometry width="50" height="50" relative="1" as="geometry">
            <mxPoint x="504" y="274" as="sourcePoint" />
            <mxPoint x="675" y="274" as="targetPoint" />
            <Array as="points">
              <mxPoint x="504" y="275" />
              <mxPoint x="692" y="275" />
              <mxPoint x="692" y="573" />
            </Array>
          </mxGeometry>
        </mxCell>
        <mxCell id="__zgodZX4Aq3NMXaG7Lk-2" value="&lt;font style=&quot;font-size: 14px;&quot;&gt;Настроенные инструменты анализа&lt;/font&gt;" style="text;html=1;align=center;verticalAlign=middle;whiteSpace=wrap;rounded=0;" vertex="1" parent="1">
          <mxGeometry x="498" y="242" width="167" height="30" as="geometry" />
        </mxCell>
        <mxCell id="__zgodZX4Aq3NMXaG7Lk-3" value="" style="endArrow=classic;html=1;rounded=0;exitX=0.999;exitY=0.601;exitDx=0;exitDy=0;exitPerimeter=0;entryX=0;entryY=0.5;entryDx=0;entryDy=0;edgeStyle=orthogonalEdgeStyle;" edge="1" parent="1" target="FxLP1MhPipuWpgZX1rUJ-2">
          <mxGeometry width="50" height="50" relative="1" as="geometry">
            <mxPoint x="503.7829999999999" y="320.43299999999977" as="sourcePoint" />
            <mxPoint x="674" y="320.5" as="targetPoint" />
            <Array as="points">
              <mxPoint x="692" y="320" />
              <mxPoint x="692" y="573" />
            </Array>
          </mxGeometry>
        </mxCell>
        <mxCell id="__zgodZX4Aq3NMXaG7Lk-4" value="&lt;font style=&quot;font-size: 14px;&quot;&gt;Определение цели анализа&lt;/font&gt;" style="text;html=1;align=center;verticalAlign=middle;whiteSpace=wrap;rounded=0;" vertex="1" parent="1">
          <mxGeometry x="500" y="288.5" width="164" height="30" as="geometry" />
        </mxCell>
        <mxCell id="__zgodZX4Aq3NMXaG7Lk-5" value="&lt;span style=&quot;font-size: 14px;&quot;&gt;Результаты анализа&lt;/span&gt;" style="text;html=1;align=center;verticalAlign=middle;whiteSpace=wrap;rounded=0;" vertex="1" parent="1">
          <mxGeometry x="955" y="536" width="102" height="30" as="geometry" />
        </mxCell>
        <mxCell id="__zgodZX4Aq3NMXaG7Lk-8" style="edgeStyle=orthogonalEdgeStyle;rounded=0;orthogonalLoop=1;jettySize=auto;html=1;" edge="1" parent="1">
          <mxGeometry relative="1" as="geometry">
            <mxPoint x="1536" y="879" as="targetPoint" />
            <mxPoint x="1360" y="879" as="sourcePoint" />
          </mxGeometry>
        </mxCell>
        <mxCell id="__zgodZX4Aq3NMXaG7Lk-9" value="&lt;span style=&quot;font-size: 14px;&quot;&gt;Отчет об уязвимостях&lt;/span&gt;" style="text;html=1;align=center;verticalAlign=middle;whiteSpace=wrap;rounded=0;" vertex="1" parent="1">
          <mxGeometry x="1391" y="740" width="102" height="30" as="geometry" />
        </mxCell>
        <mxCell id="__zgodZX4Aq3NMXaG7Lk-10" value="&lt;span style=&quot;font-size: 14px;&quot;&gt;Рекомендации по исправлению&lt;/span&gt;" style="text;html=1;align=center;verticalAlign=middle;whiteSpace=wrap;rounded=0;" vertex="1" parent="1">
          <mxGeometry x="1366" y="801" width="158" height="73" as="geometry" />
        </mxCell>
        <mxCell id="__zgodZX4Aq3NMXaG7Lk-24" style="edgeStyle=orthogonalEdgeStyle;rounded=0;orthogonalLoop=1;jettySize=auto;html=1;entryX=0.5;entryY=1;entryDx=0;entryDy=0;" edge="1" parent="1" source="__zgodZX4Aq3NMXaG7Lk-23" target="FxLP1MhPipuWpgZX1rUJ-3">
          <mxGeometry relative="1" as="geometry" />
        </mxCell>
        <mxCell id="__zgodZX4Aq3NMXaG7Lk-23" value="&lt;font style=&quot;font-size: 14px;&quot;&gt;Инструменты для создания отчетов&lt;/font&gt;" style="text;html=1;align=center;verticalAlign=middle;whiteSpace=wrap;rounded=0;" vertex="1" parent="1">
          <mxGeometry x="1167" y="968" width="169" height="30" as="geometry" />
        </mxCell>
        <mxCell id="__zgodZX4Aq3NMXaG7Lk-28" style="edgeStyle=orthogonalEdgeStyle;rounded=0;orthogonalLoop=1;jettySize=auto;html=1;entryX=0.175;entryY=1.008;entryDx=0;entryDy=0;entryPerimeter=0;" edge="1" parent="1" source="Bp4y3WKvlG-RzDEeXT-m-12" target="FxLP1MhPipuWpgZX1rUJ-2">
          <mxGeometry relative="1" as="geometry">
            <Array as="points">
              <mxPoint x="348" y="810" />
              <mxPoint x="780" y="810" />
            </Array>
          </mxGeometry>
        </mxCell>
        <mxCell id="__zgodZX4Aq3NMXaG7Lk-30" style="edgeStyle=orthogonalEdgeStyle;rounded=0;orthogonalLoop=1;jettySize=auto;html=1;entryX=0.143;entryY=1;entryDx=0;entryDy=0;entryPerimeter=0;" edge="1" parent="1" source="Bp4y3WKvlG-RzDEeXT-m-12" target="FxLP1MhPipuWpgZX1rUJ-1">
          <mxGeometry relative="1" as="geometry" />
        </mxCell>
        <mxCell id="__zgodZX4Aq3NMXaG7Lk-31" style="edgeStyle=orthogonalEdgeStyle;rounded=0;orthogonalLoop=1;jettySize=auto;html=1;entryX=0.41;entryY=1;entryDx=0;entryDy=0;entryPerimeter=0;" edge="1" parent="1" source="Bp4y3WKvlG-RzDEeXT-m-11" target="FxLP1MhPipuWpgZX1rUJ-1">
          <mxGeometry relative="1" as="geometry" />
        </mxCell>
        <mxCell id="__zgodZX4Aq3NMXaG7Lk-32" style="edgeStyle=orthogonalEdgeStyle;rounded=0;orthogonalLoop=1;jettySize=auto;html=1;entryX=0.7;entryY=1.015;entryDx=0;entryDy=0;entryPerimeter=0;" edge="1" parent="1" source="Bp4y3WKvlG-RzDEeXT-m-10" target="FxLP1MhPipuWpgZX1rUJ-1">
          <mxGeometry relative="1" as="geometry">
            <Array as="points">
              <mxPoint x="718" y="630" />
              <mxPoint x="440" y="630" />
            </Array>
          </mxGeometry>
        </mxCell>
        <mxCell id="__zgodZX4Aq3NMXaG7Lk-33" style="edgeStyle=orthogonalEdgeStyle;rounded=0;orthogonalLoop=1;jettySize=auto;html=1;entryX=0.903;entryY=1.045;entryDx=0;entryDy=0;entryPerimeter=0;" edge="1" parent="1" source="Bp4y3WKvlG-RzDEeXT-m-9" target="FxLP1MhPipuWpgZX1rUJ-1">
          <mxGeometry relative="1" as="geometry">
            <Array as="points">
              <mxPoint x="887" y="751" />
              <mxPoint x="484" y="751" />
            </Array>
          </mxGeometry>
        </mxCell>
      </root>
    </mxGraphModel>
  </diagram>
</mxfile>
